<svg xmlns="http://www.w3.org/2000/svg" width="64" height="64" fill="currentColor">
  <path d="M36.5 11v6.171c1.5.33 2.133.767 3.163 1.346l4.241-4.394 5.94 5.904-4.379 4.311C46.041 25.367 46.5 26 46.83 27.5H53v9h-6.171c-.328 1.5-.77 2.106-1.344 3.141l4.395 4.215-5.906 5.938-4.309-4.377C38.63 45.992 38 46.45 36.5 46.778V53h-9v-6.222c-1.5-.33-2.105-.765-3.138-1.341l-4.216 4.398-5.939-5.898 4.378-4.296C18.008 38.606 17.55 38 17.223 36.5H11v-9h6.222c.328-1.5.765-2.133 1.342-3.162l-4.399-4.244 5.898-5.938 4.299 4.377c1.034-.576 1.638-1.032 3.138-1.362V11h9M32 41a9 9 0 1 0 0-18 9 9 0 0 0 0 18m4.5-33h-9c-1.656 0-3 1.344-3 3v3.393l-2.297-2.338a2.996 2.996 0 0 0-2.131-.899h-.009a3 3 0 0 0-2.128.886l-5.898 5.939a3.003 3.003 0 0 0 .046 4.273l2.328 2.246H11c-1.656 0-3 1.344-3 3v9c0 1.656 1.344 3 3 3h3.445l-2.34 2.295a3.003 3.003 0 0 0-.011 4.27l5.938 5.899a3 3 0 0 0 2.113.871h.037a3.01 3.01 0 0 0 2.128-.922l2.19-2.285V53c0 1.656 1.344 3 3 3h9a3 3 0 0 0 3-3v-3.474l2.337 2.373a2.993 2.993 0 0 0 2.13.895h.008c.797 0 1.564-.317 2.127-.884l5.905-5.939a3 3 0 0 0-.05-4.281l-2.285-2.19H53a3 3 0 0 0 3-3v-9a3 3 0 0 0-3-3h-3.423l2.372-2.337a2.997 2.997 0 0 0 .01-4.263l-5.938-5.904a3 3 0 0 0-2.115-.873h-.032a3.003 3.003 0 0 0-2.127.917L39.5 14.366V11a3 3 0 0 0-3-3M32 38c-3.309 0-6-2.691-6-6s2.691-6 6-6 6 2.691 6 6-2.691 6-6 6"/>
</svg>
